HIERARCHY
ROOT Hips
{
  OFFSET 5.84602e-005 68.8428 3.50346
  CHANNELS 6 Xposition Yposition Zposition Zrotation Xrotation Yrotation
  JOINT Spine
  {
    OFFSET 0 8.597 -4.6522
    CHANNELS 3 Zrotation Xrotation Yrotation
    JOINT Spine1
    {
      OFFSET 0 7.8454 0.4098
      CHANNELS 3 Zrotation Xrotation Yrotation
      JOINT Spine2
      {
        OFFSET 0 9.7078 -2.1609
        CHANNELS 3 Zrotation Xrotation Yrotation
        JOINT Neck
        {
          OFFSET 0 21.8761 -0.4549
          CHANNELS 3 Zrotation Xrotation Yrotation
          JOINT Head
          {
            OFFSET 0 12.3537 3.3602
            CHANNELS 3 Zrotation Xrotation Yrotation
            End Site
            {
              OFFSET 0.0001 18.9506 0.5657
            }
          }
        }
        JOINT LeftShoulder
        {
          OFFSET 2.2086 21.1115 7.2329
          CHANNELS 3 Zrotation Xrotation Yrotation
          JOINT LeftArm
          {
            OFFSET 13.1193 3.0282 -4.8998
            CHANNELS 3 Zrotation Xrotation Yrotation
            JOINT LeftForeArm
            {
              OFFSET 27.4081 -0.0973053 -0.2375
              CHANNELS 3 Zrotation Xrotation Yrotation
              JOINT LeftHand
              {
                OFFSET 22.8641 0.0662994 -0.1369
                CHANNELS 3 Zrotation Xrotation Yrotation
                JOINT LeftHandIndex1
                {
                  OFFSET 8.8614 0.775009 2.4612
                  CHANNELS 3 Zrotation Xrotation Yrotation
                  JOINT LeftHandIndex2
                  {
                    OFFSET 3.3146 -0.808304 0.5841
                    CHANNELS 3 Zrotation Xrotation Yrotation
                    JOINT LeftHandIndex3
                    {
                      OFFSET 2.2628 -0.552002 0.3989
                      CHANNELS 3 Zrotation Xrotation Yrotation
                      End Site
                      {
                        OFFSET 1.6102 -0.4807 0.2612
                      }
                    }
                  }
                }
                JOINT LeftHandMiddle1
                {
                  OFFSET 8.9937 0.895004 0.2143
                  CHANNELS 3 Zrotation Xrotation Yrotation
                  JOINT LeftHandMiddle2
                  {
                    OFFSET 4.0984 0.0113983 -0.0242
                    CHANNELS 3 Zrotation Xrotation Yrotation
                    JOINT LeftHandMiddle3
                    {
                      OFFSET 2.2716 0.00689697 -0.0138001
                      CHANNELS 3 Zrotation Xrotation Yrotation
                      End Site
                      {
                        OFFSET 2.0404 -0.1441 0.0027
                      }
                    }
                  }
                }
                JOINT LeftHandRing1
                {
                  OFFSET 8.5234 0.597198 -2.0164
                  CHANNELS 3 Zrotation Xrotation Yrotation
                  JOINT LeftHandRing2
                  {
                    OFFSET 3.7188 -0.188293 -0.2328
                    CHANNELS 3 Zrotation Xrotation Yrotation
                    JOINT LeftHandRing3
                    {
                      OFFSET 2.1191 -0.106598 -0.1332
                      CHANNELS 3 Zrotation Xrotation Yrotation
                      End Site
                      {
                        OFFSET 1.8737 -0.2304 -0.0886
                      }
                    }
                  }
                }
                JOINT LeftHandPinky1
                {
                  OFFSET 7.9094 -0.601089 -3.4825
                  CHANNELS 3 Zrotation Xrotation Yrotation
                  JOINT LeftHandPinky2
                  {
                    OFFSET 2.2874 -0.477005 -0.6314
                    CHANNELS 3 Zrotation Xrotation Yrotation
                    JOINT LeftHandPinky3
                    {
                      OFFSET 1.6774 -0.349396 -0.4633
                      CHANNELS 3 Zrotation Xrotation Yrotation
                      End Site
                      {
                        OFFSET 1.4888 -0.4091 -0.3416
                      }
                    }
                  }
                }
                JOINT LeftHandThumb1
                {
                  OFFSET 1.833 -1.3875 1.3896
                  CHANNELS 3 Zrotation Xrotation Yrotation
                  JOINT LeftHandThumb2
                  {
                    OFFSET 3.4129 -1.121 2.5732
                    CHANNELS 3 Zrotation Xrotation Yrotation
                    JOINT LeftHandThumb3
                    {
                      OFFSET 2.2474 -0.804199 1.6192
                      CHANNELS 3 Zrotation Xrotation Yrotation
                      End Site
                      {
                        OFFSET 1.6527 -0.5689 1.1317
                      }
                    }
                  }
                }
              }
            }
          }
        }
        JOINT RightShoulder
        {
          OFFSET -2.2086 21.1115 7.2329
          CHANNELS 3 Zrotation Xrotation Yrotation
          JOINT RightArm
          {
            OFFSET -13.1216 3.0287 -4.9007
            CHANNELS 3 Zrotation Xrotation Yrotation
            JOINT RightForeArm
            {
              OFFSET -27.4081 -0.0973053 -0.2375
              CHANNELS 3 Zrotation Xrotation Yrotation
              JOINT RightHand
              {
                OFFSET -22.8641 0.0664063 -0.1369
                CHANNELS 3 Zrotation Xrotation Yrotation
                JOINT RightHandIndex1
                {
                  OFFSET -8.8614 0.774994 2.4612
                  CHANNELS 3 Zrotation Xrotation Yrotation
                  JOINT RightHandIndex2
                  {
                    OFFSET -3.3146 -0.808304 0.5841
                    CHANNELS 3 Zrotation Xrotation Yrotation
                    JOINT RightHandIndex3
                    {
                      OFFSET -2.2628 -0.552002 0.3989
                      CHANNELS 3 Zrotation Xrotation Yrotation
                      End Site
                      {
                        OFFSET -1.6102 -0.4807 0.2612
                      }
                    }
                  }
                }
                JOINT RightHandMiddle1
                {
                  OFFSET -8.9937 0.894989 0.2143
                  CHANNELS 3 Zrotation Xrotation Yrotation
                  JOINT RightHandMiddle2
                  {
                    OFFSET -4.0984 0.0113983 -0.0242
                    CHANNELS 3 Zrotation Xrotation Yrotation
                    JOINT RightHandMiddle3
                    {
                      OFFSET -2.2716 0.00691223 -0.0138001
                      CHANNELS 3 Zrotation Xrotation Yrotation
                      End Site
                      {
                        OFFSET -2.0404 -0.1441 0.0027
                      }
                    }
                  }
                }
                JOINT RightHandRing1
                {
                  OFFSET -8.5234 0.597198 -2.0164
                  CHANNELS 3 Zrotation Xrotation Yrotation
                  JOINT RightHandRing2
                  {
                    OFFSET -3.7188 -0.188309 -0.2328
                    CHANNELS 3 Zrotation Xrotation Yrotation
                    JOINT RightHandRing3
                    {
                      OFFSET -2.1191 -0.106598 -0.1332
                      CHANNELS 3 Zrotation Xrotation Yrotation
                      End Site
                      {
                        OFFSET -1.8737 -0.2304 -0.0886
                      }
                    }
                  }
                }
                JOINT RightHandPinky1
                {
                  OFFSET -7.9094 -0.601105 -3.4825
                  CHANNELS 3 Zrotation Xrotation Yrotation
                  JOINT RightHandPinky2
                  {
                    OFFSET -2.2874 -0.477005 -0.6314
                    CHANNELS 3 Zrotation Xrotation Yrotation
                    JOINT RightHandPinky3
                    {
                      OFFSET -1.6774 -0.349396 -0.4633
                      CHANNELS 3 Zrotation Xrotation Yrotation
                      End Site
                      {
                        OFFSET -1.4888 -0.4091 -0.3416
                      }
                    }
                  }
                }
                JOINT RightHandThumb1
                {
                  OFFSET -1.833 -1.38751 1.3896
                  CHANNELS 3 Zrotation Xrotation Yrotation
                  JOINT RightHandThumb2
                  {
                    OFFSET -3.41299 -1.12099 2.5732
                    CHANNELS 3 Zrotation Xrotation Yrotation
                    JOINT RightHandThumb3
                    {
                      OFFSET -2.24741 -0.804108 1.6192
                      CHANNELS 3 Zrotation Xrotation Yrotation
                      End Site
                      {
                        OFFSET -1.6527 -0.5689 1.1317
                      }
                    }
                  }
                }
              }
            }
          }
        }
      }
    }
  }
  JOINT RightUpLeg
  {
    OFFSET -9.1966 3.8861 -0.7581
    CHANNELS 3 Zrotation Xrotation Yrotation
    JOINT RightLeg
    {
      OFFSET -0.7359 -41.0265 0
      CHANNELS 3 Zrotation Xrotation Yrotation
      JOINT RightFoot
      {
        OFFSET 0 -40.2855 0
        CHANNELS 3 Zrotation Xrotation Yrotation
        JOINT RightToeBase
        {
          OFFSET 0 -5.6122 11.7359
          CHANNELS 3 Zrotation Xrotation Yrotation
          End Site
          {
            OFFSET 0 0 7.8731
          }
        }
      }
    }
  }
  JOINT LeftUpLeg
  {
    OFFSET 9.1965 3.8864 -0.7581
    CHANNELS 3 Zrotation Xrotation Yrotation
    JOINT LeftLeg
    {
      OFFSET 0.7359 -41.0268 0
      CHANNELS 3 Zrotation Xrotation Yrotation
      JOINT LeftFoot
      {
        OFFSET 0 -40.2855 0
        CHANNELS 3 Zrotation Xrotation Yrotation
        JOINT LeftToeBase
        {
          OFFSET 0 -5.6122 11.7359
          CHANNELS 3 Zrotation Xrotation Yrotation
          End Site
          {
            OFFSET 0 0 7.8731
          }
        }
      }
    }
  }
}
MOTION
Frames:	5
Frame Time:	0.0333333
5.84602e-005 68.8428 3.50346 0 0 -0 0 0 -0 0 0 -0 0 0 -0 0 0 -0 0 0 -0 0 0 -0 0 0 -0 0 0 -0 0 0 -0 0 0 -0 0 0 -0 0 0 -0 0 0 -0 -0.0146107 -8.87603e-005 -2.63497e-007 2.99804e-018 -2.42657e-020 -1.42182e-022 0 0 -0 -0.0187562 -0.001176 5.858e-005 5.06224e-018 3.88251e-019 1.21329e-020 0 0 -0 -0.012269 -0.00324817 0.000675346 -1.74678e-018 3.88251e-019 -0 0 0 -0 0 0 -0 0 0 -0 0 0 -0 0 0 -0 0 0 -0 0 0 -0 0 0 -0 0 0 -0 0 0 -0 0 0 -0 0.0149955 -9.10982e-005 2.64101e-007 -9.69331e-018 1.21329e-020 -4.7394e-023 0 0 -0 0.0189956 -0.00119102 -5.96516e-005 -5.41541e-019 0 2.42657e-020 0 0 -0 0.0122698 -0.00324857 -0.000673756 -2.00796e-019 0 -1.94126e-019 0 0 -0 0 0 -0 0 0 -0 3.39842 1.33031 -0.0637918 -5.65207e-008 0.834868 -0.000436188 -3.39935 -2.16518 -0.0642563 -8.89002e-024 -1.18485e-023 -1.48106e-024 -3.39844 1.35642 0.0640283 -3.18788e-007 0.782166 -0.000588827 3.39931 -2.13858 0.0634662 1.1399e-023 0 -0 
0.0308298 24.7567 6.95529 5.1955 -79.2501 3.95427 -0.511626 5.14745 -0.691626 -0.966426 10.3005 -1.34506 -0.966425 10.3005 -1.34506 0.904001 4.69284 -0.221 -0.464542 -4.02069 -1.65842 19.2091 2.77071 -15.8278 -32.3264 50.3339 -28.5554 47.1287 -49.6822 -11.4964 -34.3787 -43.0352 -36.2309 -3.97569e-015 -1.59028e-015 -0 -7.15625e-015 -3.18055e-015 3.18055e-015 -3.97569e-015 1.59028e-015 9.54166e-015 -3.97569e-015 -1.59028e-015 -0 -0.0145879 -8.80729e-005 -1.97608e-006 2.38542e-015 2.70347e-014 9.54166e-015 -3.97569e-015 -1.59028e-015 -0 -0.0187742 -0.00117766 5.9198e-005 7.95139e-016 -3.18055e-015 -0 -3.97569e-015 -1.59028e-015 -0 -0.0122488 -0.00323932 0.000670832 3.97569e-015 0 1.27222e-014 -3.97569e-015 -1.59028e-015 -0 -7.15625e-015 -3.18055e-015 3.18055e-015 -3.97569e-015 1.59028e-015 9.54166e-015 -19.2382 2.78361 15.7951 32.2664 50.3728 28.5827 -47.2442 -49.6956 11.4195 34.4104 -43.0527 36.221 2.78295e-006 -7.94058e-007 1.79498e-006 -2.4826e-006 1.52689e-007 -2.26769e-006 2.78295e-006 -7.94058e-007 1.79498e-006 2.78295e-006 -7.94058e-007 1.79498e-006 0.0149141 -9.17535e-005 -2.33386e-006 2.78095e-006 -7.93812e-007 1.79508e-006 2.78295e-006 -7.94058e-007 1.79498e-006 0.018998 -0.00119685 -6.08673e-005 2.78042e-006 -7.93599e-007 1.79509e-006 2.78295e-006 -7.94058e-007 1.79498e-006 0.0123064 -0.00326213 -0.000678622 3.00332e-007 -6.41416e-007 -4.72649e-007 2.78295e-006 -7.94058e-007 1.79498e-006 -2.4826e-006 1.52689e-007 -2.26769e-006 2.78295e-006 -7.94058e-007 1.79498e-006 3.29447 -9.65961 5.27072 1.86532 69.2487 -3.18586 -0.428702 17.662 1.95883 -5.2181e-016 0 -7.95139e-016 -3.29914 -9.75024 -5.28048 -1.87977 69.3418 4.3395 0.783799 17.6482 -3.16386 -1.01024e-008 2.03273e-007 -2.22909e-007 
-0.130641 4.6171 4.16011 179.604 -65.0297 177.468 -0.734404 7.45438 -1.06 -1.34556 14.9207 -2.04901 -1.34556 14.9207 -2.04901 1.27522 6.82 -0.312847 -0.749888 -5.82733 -2.41126 28.3435 3.84535 -22.9774 -15.6503 61.7114 -66.8708 49.5125 -69.7136 -33.0695 -71.7503 -49.0357 -66.7975 -3.22004e-007 2.15799e-007 5.60653e-007 -1.59028e-015 0 3.18055e-015 3.18055e-015 3.18055e-015 3.18055e-015 -3.22004e-007 2.15799e-007 5.60653e-007 -0.0146635 -8.7785e-005 -1.89246e-006 -3.20177e-007 2.15738e-007 5.60681e-007 -3.22004e-007 2.15799e-007 5.60653e-007 -0.0187861 -0.00118104 6.2497e-005 -7.95139e-016 0 -3.18055e-015 -3.22004e-007 2.15799e-007 5.60653e-007 -0.0122533 -0.00323948 0.000675276 2.22639e-014 -9.54166e-015 -1.74931e-014 -3.22004e-007 2.15799e-007 5.60653e-007 -1.59028e-015 0 3.18055e-015 3.18055e-015 3.18055e-015 3.18055e-015 -28.3871 3.86396 22.9303 15.7063 61.8013 66.8674 -49.8217 -69.6698 32.889 72.104 -49.0828 67.0454 3.18055e-015 -1.27222e-014 3.18055e-015 -6.01992e-007 6.72787e-008 6.6281e-007 6.01992e-007 -6.72787e-008 -6.6281e-007 3.18055e-015 -1.27222e-014 3.18055e-015 0.0150046 -9.02295e-005 1.13381e-007 3.18055e-015 3.18055e-015 -1.59028e-015 3.18055e-015 -1.27222e-014 3.18055e-015 0.0190006 -0.00119242 -5.72339e-005 -6.36111e-015 0 -3.18055e-015 3.18055e-015 -1.27222e-014 3.18055e-015 0.012287 -0.00325166 -0.000677186 -3.53113e-031 -6.36111e-015 -3.18055e-015 3.18055e-015 -1.27222e-014 3.18055e-015 -6.01992e-007 6.72787e-008 6.6281e-007 6.01992e-007 -6.72787e-008 -6.6281e-007 4.1358 -13.8682 7.21105 176.104 81.2797 -178.26 0.471983 27.2839 2.87991 -2.13229e-007 3.66072e-009 5.81562e-009 -4.14268 -13.9762 -7.23613 -176.118 81.2546 178.26 -0.488018 27.3681 -2.88643 1.84963e-015 3.97569e-016 -1.98785e-016 
-0.0869185 9.25471 4.97896 178.523 -72.9504 176.605 -0.685786 6.94232 -0.974801 -1.26558 13.895 -1.88616 -1.26558 13.895 -1.88616 1.08691 6.38353 -0.27286 -0.682354 -5.42608 -2.24342 26.2891 3.62068 -21.3866 -21.8819 60.3744 -56.0761 51.1172 -65.3849 -25.9136 -62.0764 -48.8493 -59.0941 3.77691e-015 -1.27222e-014 1.19271e-015 -1.78373e-007 -2.22802e-007 -8.0257e-007 -1.19271e-015 0 -7.95139e-016 3.77691e-015 -1.27222e-014 1.19271e-015 -0.014576 -8.91868e-005 -2.47686e-008 -6.26172e-015 0 4.17448e-015 3.77691e-015 -1.27222e-014 1.19271e-015 -0.0187721 -0.00117442 5.85499e-005 1.68967e-015 6.36111e-015 1.39149e-015 3.77691e-015 -1.27222e-014 1.19271e-015 -0.0122085 -0.00323209 0.000672869 1.19271e-015 6.36111e-015 -1.19271e-015 3.77691e-015 -1.27222e-014 1.19271e-015 -1.78373e-007 -2.22802e-007 -8.0257e-007 -1.19271e-015 0 -7.95139e-016 -26.3293 3.63803 21.3427 22.4541 60.5653 55.7559 -51.4423 -65.1521 25.8293 62.9752 -49.0176 59.8148 1.63523e-007 -3.23058e-007 7.7204e-007 2.45284e-007 -4.84587e-007 1.15806e-006 8.17613e-008 -1.61529e-007 3.8602e-007 1.63523e-007 -3.23058e-007 7.7204e-007 0.014973 -9.00064e-005 -1.25187e-006 8.17589e-008 -1.61478e-007 3.86041e-007 1.63523e-007 -3.23058e-007 7.7204e-007 0.0190214 -0.00119093 -5.93058e-005 8.1762e-008 -1.61465e-007 3.86046e-007 1.63523e-007 -3.23058e-007 7.7204e-007 0.0122537 -0.00324603 -0.000672486 8.1771e-008 -1.61486e-007 3.86035e-007 1.63523e-007 -3.23058e-007 7.7204e-007 2.45284e-007 -4.84587e-007 1.15806e-006 8.17613e-008 -1.61529e-007 3.8602e-007 3.90145 -12.952 6.83701 163.732 87.7351 -165.667 0.288695 25.1428 2.68665 4.26406e-007 -1.0437e-008 -1.08464e-008 -3.90689 -13.0599 -6.85787 -164.057 87.6897 165.979 -0.303902 25.2046 -2.6923 -1.27904e-006 -2.68273e-007 1.01865e-007 
-0.0869185 9.25471 4.97896 178.523 -72.9504 176.605 -0.685786 6.94232 -0.974801 -1.26558 13.895 -1.88616 -1.26558 13.895 -1.88616 1.00073 6.41307 -0.256842 -0.682354 -5.42607 -2.24342 26.2891 3.62068 -21.3866 -22.0474 60.1213 -55.883 50.3396 -65.1325 -26.4134 -61.5666 -48.7587 -58.6594 6.63843e-008 1.82947e-006 3.5536e-007 -6.63843e-008 -1.82947e-006 -3.5536e-007 6.63843e-008 1.82947e-006 3.5536e-007 6.63843e-008 1.82947e-006 3.5536e-007 -0.0146249 -9.22656e-005 2.4352e-008 6.63324e-008 1.82943e-006 3.55593e-007 6.63843e-008 1.82947e-006 3.5536e-007 -0.0187973 -0.00118054 6.05438e-005 6.63219e-008 1.82941e-006 3.55659e-007 6.63843e-008 1.82947e-006 3.5536e-007 -0.0123531 -0.00327209 0.000682703 6.63613e-008 1.82942e-006 3.55557e-007 6.63843e-008 1.82947e-006 3.5536e-007 -6.63843e-008 -1.82947e-006 -3.5536e-007 6.63843e-008 1.82947e-006 3.5536e-007 -26.3293 3.63803 21.3427 23.0483 60.4057 55.3157 -50.7432 -64.7371 26.3584 62.9751 -49.0176 59.8148 -1.39149e-015 6.36111e-015 1.98785e-015 -1.21259e-014 3.18055e-015 -2.38542e-015 3.37934e-015 3.18055e-015 -3.18055e-015 -1.39149e-015 6.36111e-015 1.98785e-015 0.0150196 -9.20484e-005 1.99406e-006 6.75868e-015 0 3.97569e-015 -1.39149e-015 6.36111e-015 1.98785e-015 0.0190079 -0.00118982 -5.90615e-005 6.75868e-015 0 1.19271e-015 -1.39149e-015 6.36111e-015 1.98785e-015 0.0122628 -0.00324544 -0.000677039 -9.9269e-007 -4.50191e-007 1.46857e-007 -1.39149e-015 6.36111e-015 1.98785e-015 -1.21259e-014 3.18055e-015 -2.38542e-015 3.37934e-015 3.18055e-015 -3.18055e-015 3.90145 -12.952 6.83701 163.732 87.7351 -165.667 0.288693 25.1428 2.68666 1.2921e-015 0 -0 -3.90689 -13.0599 -6.85787 -164.057 87.6897 165.979 -0.303898 25.2046 -2.6923 -1.70617e-006 -2.0328e-008 -6.53684e-008 
